HIERARCHY
ROOT hip
{
	OFFSET 0.000000 0.000000 0.000000
	CHANNELS 6 Xposition Yposition Zposition Xrotation Zrotation Yrotation 
	JOINT abdomen
	{
		OFFSET 0.000000 3.422050 0.000000
		CHANNELS 3 Xrotation Zrotation Yrotation 
		JOINT chest
		{
			OFFSET 0.000000 8.486693 -0.6844110
			CHANNELS 3 Xrotation Zrotation Yrotation 
			JOINT neck
			{
				OFFSET 0.000000 10.26616 -0.2737640
				CHANNELS 3 Xrotation Zrotation Yrotation 
				JOINT head
				{
					OFFSET 0.000000 3.148285 0.000000
					CHANNELS 3 Xrotation Zrotation Yrotation 
					End Site
					{
						OFFSET 0.000000 3.148289 0.000000
					}
				}
			}
			JOINT lCollar
			{
				OFFSET 3.422053 6.707223 -0.8212930
				CHANNELS 3 Yrotation Zrotation Xrotation 
				JOINT lShldr
				{
					OFFSET 3.285171 0.000000 0.000000
					CHANNELS 3 Zrotation Yrotation Xrotation 
					JOINT lForeArm
					{
						OFFSET 10.12928 0.000000 0.000000
						CHANNELS 3 Yrotation Zrotation Xrotation 
						JOINT lHand
						{
							OFFSET 8.486692 0.000000 0.000000
							CHANNELS 3 Zrotation Yrotation Xrotation 
							End Site
							{
								OFFSET 4.106464 0.000000 0.000000
							}
						}
					}
				}
			}
			JOINT rCollar
			{
				OFFSET -3.558935 6.707223 -0.8212930
				CHANNELS 3 Yrotation Zrotation Xrotation 
				JOINT rShldr
				{
					OFFSET -3.148289 0.000000 0.000000
					CHANNELS 3 Zrotation Yrotation Xrotation 
					JOINT rForeArm
					{
						OFFSET -10.26616 0.000000 0.000000
						CHANNELS 3 Yrotation Zrotation Xrotation 
						JOINT rHand
						{
							OFFSET -8.349810 0.000000 0.000000
							CHANNELS 3 Zrotation Yrotation Xrotation 
							End Site
							{
								OFFSET -4.106464 0.000000 0.000000
							}
						}
					}
				}
			}
		}
	}
	JOINT lThigh
	{
		OFFSET 5.338403 -1.642589 1.368821
		CHANNELS 3 Xrotation Zrotation Yrotation 
		JOINT lShin
		{
			OFFSET -2.053232 -20.12167 0.000000
			CHANNELS 3 Xrotation Zrotation Yrotation 
			JOINT lFoot
			{
				OFFSET 0.000000 -19.30038 -1.231939
				CHANNELS 3 Xrotation Yrotation Zrotation 
				End Site
				{
					OFFSET 0.000000 -2.463878 4.653993
				}
			}
		}
	}
	JOINT rThigh
	{
		OFFSET -5.338403 -1.642589 1.368821
		CHANNELS 3 Xrotation Zrotation Yrotation 
		JOINT rShin
		{
			OFFSET 2.053232 -20.12167 0.000000
			CHANNELS 3 Xrotation Zrotation Yrotation 
			JOINT rFoot
			{
				OFFSET 0.000000 -19.30038 -1.231939
				CHANNELS 3 Xrotation Yrotation Zrotation 
				End Site
				{
					OFFSET 0.000000 -2.463878 4.653993
				}
			}
		}
	}
}
MOTION
Frames:	20
Frame Time:	0.03333333
1.866667 43.52852 -2.133333 0.4666667 0.000000 16.00000 1.000000 0.000000 0.000000 1.000000 0.000000 0.000000 1.000000 0.000000 0.000000 1.000000 0.000000 0.000000 0.000000 0.000000 1.000000 -77.00000 -33.60000 38.40000 -52.26667 0.000000 1.000000 0.000000 0.000000 1.000000 0.000000 0.000000 1.000000 64.93333 33.60000 79.46667 91.46667 0.000000 1.000000 -20.53333 0.000000 1.000000 0.000000 7.333333 0.000000 1.000000 0.000000 0.000000 1.000000 0.000000 0.000000 0.000000 -7.333333 0.000000 1.000000 0.000000 0.000000 1.000000 0.000000 0.000000 
1.600000 43.52852 -2.400000 0.4000000 0.000000 18.00000 1.000000 0.000000 0.000000 1.000000 0.000000 0.000000 1.000000 0.000000 0.000000 1.000000 0.000000 0.000000 0.000000 0.000000 1.000000 -77.00000 -37.80000 43.20000 -58.80000 0.000000 1.000000 0.000000 0.000000 1.000000 0.000000 0.000000 1.000000 66.80000 37.80000 80.40000 92.40000 0.000000 1.000000 -17.60000 0.000000 1.000000 0.000000 7.000000 0.000000 1.000000 0.000000 0.000000 1.000000 0.000000 0.000000 0.000000 -7.000000 0.000000 1.000000 0.000000 0.000000 1.000000 0.000000 0.000000 
1.333333 43.52852 -2.666667 0.3333333 0.000000 20.00000 1.000000 0.000000 0.000000 1.000000 0.000000 0.000000 1.000000 0.000000 0.000000 1.000000 0.000000 0.000000 0.000000 0.000000 1.000000 -77.00000 -42.00000 48.00000 -65.33334 0.000000 1.000000 0.000000 0.000000 1.000000 0.000000 0.000000 1.000000 68.66666 42.00000 81.33334 93.33334 0.000000 1.000000 -14.66667 0.000000 1.000000 0.000000 6.666667 0.000000 1.000000 0.000000 0.000000 1.000000 0.000000 0.000000 0.000000 -6.666667 0.000000 1.000000 0.000000 0.000000 1.000000 0.000000 0.000000 
1.066667 43.52852 -2.933333 0.2666667 0.000000 22.00000 1.000000 0.000000 0.000000 1.000000 0.000000 0.000000 1.000000 0.000000 0.000000 1.000000 0.000000 0.000000 0.000000 0.000000 1.000000 -77.00000 -46.20000 52.80000 -71.86667 0.000000 1.000000 0.000000 0.000000 1.000000 0.000000 0.000000 1.000000 70.53333 46.20000 82.26667 94.26667 0.000000 1.000000 -11.73333 0.000000 1.000000 0.000000 6.333333 0.000000 1.000000 0.000000 0.000000 1.000000 0.000000 0.000000 0.000000 -6.333333 0.000000 1.000000 0.000000 0.000000 1.000000 0.000000 0.000000 
0.8000000 43.52852 -3.200000 0.2000000 0.000000 24.00000 1.000000 0.000000 0.000000 1.000000 0.000000 0.000000 1.000000 0.000000 0.000000 1.000000 0.000000 0.000000 0.000000 0.000000 1.000000 -77.00000 -50.40000 57.60000 -78.40000 0.000000 1.000000 0.000000 0.000000 1.000000 0.000000 0.000000 1.000000 72.40000 50.40000 83.20000 95.20000 0.000000 1.000000 -8.800000 0.000000 1.000000 0.000000 6.000000 0.000000 1.000000 0.000000 0.000000 1.000000 0.000000 0.000000 0.000000 -6.000000 0.000000 1.000000 0.000000 0.000000 1.000000 0.000000 0.000000 
0.5333334 43.52852 -3.466667 0.1333333 0.000000 26.00000 1.000000 0.000000 0.000000 1.000000 0.000000 0.000000 1.000000 0.000000 0.000000 1.000000 0.000000 0.000000 0.000000 0.000000 1.000000 -77.00000 -54.60000 62.40000 -84.93333 0.000000 1.000000 0.000000 0.000000 1.000000 0.000000 0.000000 1.000000 74.26667 54.60000 84.13333 96.13333 0.000000 1.000000 -5.866667 0.000000 1.000000 0.000000 5.666667 0.000000 1.000000 0.000000 0.000000 1.000000 0.000000 0.000000 0.000000 -5.666667 0.000000 1.000000 0.000000 0.000000 1.000000 0.000000 0.000000 
0.2666667 43.52852 -3.733333 0.06666667 0.000000 28.00000 1.000000 0.000000 0.000000 1.000000 0.000000 0.000000 1.000000 0.000000 0.000000 1.000000 0.000000 0.000000 0.000000 0.000000 1.000000 -77.00000 -58.80000 67.20000 -91.46667 0.000000 1.000000 0.000000 0.000000 1.000000 0.000000 0.000000 1.000000 76.13333 58.80000 85.06667 97.06667 0.000000 1.000000 -2.933333 0.000000 1.000000 0.000000 5.333333 0.000000 1.000000 0.000000 0.000000 1.000000 0.000000 0.000000 0.000000 -5.333333 0.000000 1.000000 0.000000 0.000000 1.000000 0.000000 0.000000 
0.000000 43.52852 -4.000000 0.000000 0.000000 30.00000 1.000000 0.000000 0.000000 1.000000 0.000000 0.000000 1.000000 0.000000 0.000000 1.000000 0.000000 0.000000 0.000000 0.000000 1.000000 -77.00000 -63.00000 72.00000 -98.00000 0.000000 1.000000 0.000000 0.000000 1.000000 0.000000 0.000000 1.000000 78.00000 63.00000 86.00000 98.00000 0.000000 1.000000 0.000000 0.000000 1.000000 0.000000 5.000000 0.000000 1.000000 0.000000 0.000000 1.000000 0.000000 0.000000 0.000000 -5.000000 0.000000 1.000000 0.000000 0.000000 1.000000 0.000000 0.000000 
0.000000 43.52852 -4.000000 0.000000 0.000000 30.00000 1.000000 0.000000 0.000000 1.000000 0.000000 0.000000 1.000000 0.000000 0.000000 1.000000 0.000000 0.000000 0.000000 0.000000 1.000000 -77.00000 -63.00000 72.00000 -98.00000 0.000000 1.000000 0.000000 0.000000 1.000000 0.000000 0.000000 1.000000 78.00000 63.00000 86.00000 98.00000 0.000000 1.000000 0.000000 0.000000 1.000000 0.000000 5.000000 0.000000 1.000000 0.000000 0.000000 1.000000 0.000000 0.000000 0.000000 -5.000000 0.000000 1.000000 0.000000 0.000000 1.000000 0.000000 0.000000 
0.000000 43.52852 -4.000000 0.000000 0.000000 30.00000 1.000000 0.000000 0.000000 1.000000 0.000000 0.000000 1.000000 0.000000 0.000000 1.000000 0.000000 0.000000 0.000000 0.000000 1.000000 -77.00000 -63.00000 72.00000 -98.00000 0.000000 1.000000 0.000000 0.000000 1.000000 0.000000 0.000000 1.000000 78.00000 63.00000 86.00000 98.00000 0.000000 1.000000 0.000000 0.000000 1.000000 0.000000 5.000000 0.000000 1.000000 0.000000 0.000000 1.000000 0.000000 0.000000 0.000000 -5.000000 0.000000 1.000000 0.000000 0.000000 1.000000 0.000000 0.000000 
0.000000 43.52852 -4.000000 0.000000 0.000000 30.00000 1.000000 0.000000 0.000000 1.000000 0.000000 0.000000 1.000000 0.000000 0.000000 1.000000 0.000000 0.000000 0.000000 0.000000 1.000000 -77.00000 -63.00000 72.00000 -98.00000 0.000000 1.000000 0.000000 0.000000 1.000000 0.000000 0.000000 1.000000 78.00000 63.00000 86.00000 98.00000 0.000000 1.000000 0.000000 0.000000 1.000000 0.000000 5.000000 0.000000 1.000000 0.000000 0.000000 1.000000 0.000000 0.000000 0.000000 -5.000000 0.000000 1.000000 0.000000 0.000000 1.000000 0.000000 0.000000 
0.000000 43.52852 -4.000000 0.000000 0.000000 30.00000 1.000000 0.000000 0.000000 1.000000 0.000000 0.000000 1.000000 0.000000 0.000000 1.000000 0.000000 0.000000 0.000000 0.000000 1.000000 -77.00000 -63.00000 72.00000 -98.00000 0.000000 1.000000 0.000000 0.000000 1.000000 0.000000 0.000000 1.000000 78.00000 63.00000 86.00000 98.00000 0.000000 1.000000 0.000000 0.000000 1.000000 0.000000 5.000000 0.000000 1.000000 0.000000 0.000000 1.000000 0.000000 0.000000 0.000000 -5.000000 0.000000 1.000000 0.000000 0.000000 1.000000 0.000000 0.000000 
0.000000 43.52852 -4.000000 0.000000 0.000000 30.00000 1.000000 0.000000 0.000000 1.000000 0.000000 0.000000 1.000000 0.000000 0.000000 1.000000 0.000000 0.000000 0.000000 0.000000 1.000000 -77.00000 -63.00000 72.00000 -98.00000 0.000000 1.000000 0.000000 0.000000 1.000000 0.000000 0.000000 1.000000 78.00000 63.00000 86.00000 98.00000 0.000000 1.000000 0.000000 0.000000 1.000000 0.000000 5.000000 0.000000 1.000000 0.000000 0.000000 1.000000 0.000000 0.000000 0.000000 -5.000000 0.000000 1.000000 0.000000 0.000000 1.000000 0.000000 0.000000 
0.000000 43.52852 -4.000000 0.000000 0.000000 30.00000 1.000000 0.000000 0.000000 1.000000 0.000000 0.000000 1.000000 0.000000 0.000000 1.000000 0.000000 0.000000 0.000000 0.000000 1.000000 -77.00000 -63.00000 72.00000 -98.00000 0.000000 1.000000 0.000000 0.000000 1.000000 0.000000 0.000000 1.000000 78.00000 63.00000 86.00000 98.00000 0.000000 1.000000 0.000000 0.000000 1.000000 0.000000 5.000000 0.000000 1.000000 0.000000 0.000000 1.000000 0.000000 0.000000 0.000000 -5.000000 0.000000 1.000000 0.000000 0.000000 1.000000 0.000000 0.000000 
0.000000 43.52852 -4.000000 0.000000 0.000000 30.00000 1.000000 0.000000 0.000000 1.000000 0.000000 0.000000 1.000000 0.000000 0.000000 1.000000 0.000000 0.000000 0.000000 0.000000 1.000000 -77.00000 -63.00000 72.00000 -98.00000 0.000000 1.000000 0.000000 0.000000 1.000000 0.000000 0.000000 1.000000 78.00000 63.00000 86.00000 98.00000 0.000000 1.000000 0.000000 0.000000 1.000000 0.000000 5.000000 0.000000 1.000000 0.000000 0.000000 1.000000 0.000000 0.000000 0.000000 -5.000000 0.000000 1.000000 0.000000 0.000000 1.000000 0.000000 0.000000 
0.000000 43.52852 -4.000000 0.000000 0.000000 30.00000 1.000000 0.000000 0.000000 1.000000 0.000000 0.000000 1.000000 0.000000 0.000000 1.000000 0.000000 0.000000 0.000000 0.000000 1.000000 -77.00000 -63.00000 72.00000 -98.00000 0.000000 1.000000 0.000000 0.000000 1.000000 0.000000 0.000000 1.000000 78.00000 63.00000 86.00000 98.00000 0.000000 1.000000 0.000000 0.000000 1.000000 0.000000 5.000000 0.000000 1.000000 0.000000 0.000000 1.000000 0.000000 0.000000 0.000000 -5.000000 0.000000 1.000000 0.000000 0.000000 1.000000 0.000000 0.000000 
0.000000 43.52852 -4.000000 0.000000 0.000000 30.00000 1.000000 0.000000 0.000000 1.000000 0.000000 0.000000 1.000000 0.000000 0.000000 1.000000 0.000000 0.000000 0.000000 0.000000 1.000000 -77.00000 -63.00000 72.00000 -98.00000 0.000000 1.000000 0.000000 0.000000 1.000000 0.000000 0.000000 1.000000 78.00000 63.00000 86.00000 98.00000 0.000000 1.000000 0.000000 0.000000 1.000000 0.000000 5.000000 0.000000 1.000000 0.000000 0.000000 1.000000 0.000000 0.000000 0.000000 -5.000000 0.000000 1.000000 0.000000 0.000000 1.000000 0.000000 0.000000 
0.000000 43.52852 -4.000000 0.000000 0.000000 30.00000 1.000000 0.000000 0.000000 1.000000 0.000000 0.000000 1.000000 0.000000 0.000000 1.000000 0.000000 0.000000 0.000000 0.000000 1.000000 -77.00000 -63.00000 72.00000 -98.00000 0.000000 1.000000 0.000000 0.000000 1.000000 0.000000 0.000000 1.000000 78.00000 63.00000 86.00000 98.00000 0.000000 1.000000 0.000000 0.000000 1.000000 0.000000 5.000000 0.000000 1.000000 0.000000 0.000000 1.000000 0.000000 0.000000 0.000000 -5.000000 0.000000 1.000000 0.000000 0.000000 1.000000 0.000000 0.000000 
0.000000 43.52852 -4.000000 0.000000 0.000000 30.00000 1.000000 0.000000 0.000000 1.000000 0.000000 0.000000 1.000000 0.000000 0.000000 1.000000 0.000000 0.000000 0.000000 0.000000 1.000000 -77.00000 -63.00000 72.00000 -98.00000 0.000000 1.000000 0.000000 0.000000 1.000000 0.000000 0.000000 1.000000 78.00000 63.00000 86.00000 98.00000 0.000000 1.000000 0.000000 0.000000 1.000000 0.000000 5.000000 0.000000 1.000000 0.000000 0.000000 1.000000 0.000000 0.000000 0.000000 -5.000000 0.000000 1.000000 0.000000 0.000000 1.000000 0.000000 0.000000 
0.000000 43.52852 -4.000000 0.000000 0.000000 30.00000 1.000000 0.000000 0.000000 1.000000 0.000000 0.000000 1.000000 0.000000 0.000000 1.000000 0.000000 0.000000 0.000000 0.000000 1.000000 -77.00000 -63.00000 72.00000 -98.00000 0.000000 1.000000 0.000000 0.000000 1.000000 0.000000 0.000000 1.000000 78.00000 63.00000 86.00000 98.00000 0.000000 1.000000 0.000000 0.000000 1.000000 0.000000 5.000000 0.000000 1.000000 0.000000 0.000000 1.000000 0.000000 0.000000 0.000000 -5.000000 0.000000 1.000000 0.000000 0.000000 1.000000 0.000000 0.000000 
